<svg xmlns="http://www.w3.org/2000/svg" width="192" height="160" viewBox="740 1050 3600 3000"><defs><style>.fil0{fill:none}.fil1{fill:url(#id0)}</style><linearGradient id="id0" gradientUnits="userSpaceOnUse" x1="735.7" y1="3581.72" x2="4344.3" y2="1498.28"><stop offset="0" stop-color="#0096ff"></stop><stop offset="1" stop-color="#f644d1"></stop></linearGradient></defs><g id="????_x0020_1"><path class="fil0" d="M0 0h5080v5080H0z"></path><path class="fil1" d="M998 1732v841l-236 275 236 198v848l1846-325 862 314v-466l373-67v-842l239-278-239-199v-843L998 1733zm124 1246l-186-155 186-216v-772l2832-501v765l187 156-187 217v774l-373 67v391l-724-264-1735 306v-769zm2463-1330v85c0 16-3 32-12 46l-113 192-114-155c-8-11-10-27-10-40v-84l-123 22v90c0 24 4 48 18 68l166 226v207l124-22v-207l166-281c13-22 18-47 18-72v-95l-121 21zm-823 145v623l424-75v-113l-300 53v-509l-124 22zm-364 63l-176 31c-99 18-155 84-155 184v304c0 102 59 152 160 134l176-31c99-18 155-84 155-184v-304c0-89-44-138-121-138-12 0-25 1-38 4zm-207 504v-311c0-30 14-46 43-51l160-28c27-5 39 4 39 32v314c0 30-14 46-44 51l-160 28c-4 1-8 1-12 1-20 0-26-12-26-36zm-455-387v242l-242 43v-242l-124 22v623l124-22v-267l242-43v267l124-22v-623l-124 22zm1305 513l-265 750 128-23 265-750-128 22zm-643 157l-172 30c-94 17-155 74-155 173v45c0 68 31 114 101 120l239 20c16 1 22 8 22 24v63c0 29-18 40-45 45l-161 28c-24 4-40 3-40-25v-86l-122 22v78c0 101 63 139 158 122l179-32c95-17 156-74 156-173v-75c0-69-40-106-107-112l-235-20c-21-2-22-8-22-28v-37c0-29 18-40 45-45l154-27c24-4 40-3 40 25v92l122-22v-84c0-85-47-126-119-126-12 0-25 1-39 4zm-663 117v469c0 31-14 47-44 52l-160 28c-28 5-39-4-39-33v-101l-123 22v93c0 102 59 152 160 134l176-31c99-18 155-84 155-184v-471l-124 22zm1844 193v109l124-22v-109l-124 22zm-211 37v109l124-22v-109l-124 22zm-211 37v109l124-22v-109l-124 22z"></path></g></svg>
